<svg width="40" height="40" viewBox="0 0 40 40" fill="none" xmlns="http://www.w3.org/2000/svg">
<path d="M0 4C0 1.79086 1.79086 0 4 0H36C38.2091 0 40 1.79086 40 4V36C40 38.2091 38.2091 40 36 40H4C1.79086 40 0 38.2091 0 36V4Z" fill="#F0F0F0"/>
<path d="M21.9 24.55L21.75 24.75V25V27C21.75 27.1381 21.6381 27.25 21.5 27.25H18.5C18.3619 27.25 18.25 27.1381 18.25 27V25V24.75L18.1 24.55L15.25 20.75V17C15.25 16.8619 15.3619 16.75 15.5 16.75H24.5C24.6381 16.75 24.75 16.8619 24.75 17V20.75L21.9 24.55Z" stroke="#949494" stroke-width="1.5"/>
<line x1="17.75" y1="17" x2="17.75" y2="12" stroke="#949494" stroke-width="1.5"/>
<line x1="22.25" y1="17" x2="22.25" y2="12" stroke="#949494" stroke-width="1.5"/>
</svg>
